<svg xmlns="http://www.w3.org/2000/svg" width="1.585" height="1.318" viewBox="0 0 1.585 1.318">
  <path id="Path_1705" data-name="Path 1705" d="M328.387,800.147a.423.423,0,0,0-.3-.366.386.386,0,0,1,.014.1c0,.287-.317.519-.707.519l-.014,0a.646.646,0,0,0,.443.16.83.83,0,0,0,.16-.017l.3.209-.141-.267A.391.391,0,0,0,328.387,800.147Z" transform="translate(-326.802 -799.434)" fill="#00398c"/>
  <path id="Path_1707" data-name="Path 1707" d="M327.4,800.309a.843.843,0,0,1-.169-.018l-.32.222.146-.282a.42.42,0,0,1-.255-.36c0-.24.267-.437.6-.437s.6.2.6.437S327.729,800.309,327.4,800.309Z" transform="translate(-326.802 -799.434)" fill="#595957"/>
</svg>
