<svg xmlns="http://www.w3.org/2000/svg" width="9.714" height="9.714" viewBox="0 0 9.714 9.714">
  <rect id="Rectangle_603" data-name="Rectangle 603" width="9.714" height="9.714" fill="#00398c"/>
  <path id="Path_1715" data-name="Path 1715" d="M298.341,792.96a.112.112,0,0,0-.113.107v1.43a.428.428,0,0,0,.186.343.318.318,0,0,1,.079.2v.819c0,.685-.007,1.343-.073,2.014-.04.417-.066.766-.066.853a.456.456,0,1,0,.912,0c0-.087-.027-.436-.067-.853a17.049,17.049,0,0,1-.079-2.014v-.819a.349.349,0,0,1,.126-.235.386.386,0,0,0,.139-.322V793.1a.106.106,0,0,0-.212.007v.718h-.257v-.759a.106.106,0,1,0-.212,0v.759h-.258v-.759A.109.109,0,0,0,298.341,792.96Zm.568,2.189v.711a19.162,19.162,0,0,0,.079,2.035c.046.409.066.751.066.819a.255.255,0,0,1-.244.268.238.238,0,0,1-.238-.255c0-.074.02-.416.066-.826a19.081,19.081,0,0,0,.079-2.027v-.725Zm.264-1.108v.456a.169.169,0,0,1-.053.135.6.6,0,0,0-.2.3h-.225a.478.478,0,0,0-.172-.289.2.2,0,0,1-.073-.148v-.456Z" transform="translate(-297.412 -791.143)" fill="#e5e5e5" fill-rule="evenodd"/>
  <path id="Path_1716" data-name="Path 1716" d="M300.309,794.347a.1.1,0,0,0-.082.042,2.685,2.685,0,0,0-.611,1.7,2.646,2.646,0,0,0,4.338,2.039.116.116,0,0,0,.021-.162.137.137,0,0,0-.1-.043.108.108,0,0,0-.069.022,2.417,2.417,0,0,1-3.966-1.871,2.462,2.462,0,0,1,.562-1.546.1.1,0,0,0-.021-.155A.117.117,0,0,0,300.309,794.347Z" transform="translate(-297.412 -791.143)" fill="#e5e5e5" fill-rule="evenodd"/>
  <path id="Path_1717" data-name="Path 1717" d="M302.279,793.423a2.611,2.611,0,0,0-1.682.605.116.116,0,0,0-.021.162.11.11,0,0,0,.086.039.135.135,0,0,0,.076-.025,2.423,2.423,0,0,1,3.959,1.88,2.466,2.466,0,0,1-.554,1.549.1.1,0,0,0,.021.155.081.081,0,0,0,.07.028.138.138,0,0,0,.084-.042,2.671,2.671,0,0,0,.6-1.69A2.639,2.639,0,0,0,302.279,793.423Z" transform="translate(-297.412 -791.143)" fill="#e5e5e5" fill-rule="evenodd"/>
  <path id="Path_1718" data-name="Path 1718" d="M302.16,793.885a2.2,2.2,0,1,0,2.081,2.2A2.146,2.146,0,0,0,302.16,793.885Zm0,.231a1.965,1.965,0,1,1-1.863,1.966A1.918,1.918,0,0,1,302.16,794.116Z" transform="translate(-297.412 -791.143)" fill="#e5e5e5" fill-rule="evenodd"/>
  <path id="Path_1719" data-name="Path 1719" d="M305.978,792.96a.139.139,0,0,0-.053.01,1.661,1.661,0,0,0-.758,1.4v1.73a.279.279,0,0,0,.1.207.415.415,0,0,0,.207.1v.434c0,.4-.067,1.014-.113,1.455-.034.282-.06.5-.06.613,0,.483.3.524.392.524.187,0,.4-.138.4-.524v-5.844a.117.117,0,0,0-.061-.1A.132.132,0,0,0,305.978,792.96Zm-.106,3.449c0,2.02.007,2.489.007,2.5-.007.124-.04.282-.187.282-.046,0-.179,0-.179-.295,0-.083.026-.318.06-.586a14.73,14.73,0,0,0,.119-1.482v-.421Zm-.007-3.129v2.895l-.3.014h-.024a.244.244,0,0,1-.143-.056.422.422,0,0,1-.026-.042v-1.737A1.43,1.43,0,0,1,305.865,793.28Z" transform="translate(-297.412 -791.143)" fill="#e5e5e5" fill-rule="evenodd"/>
</svg>
