<svg xmlns="http://www.w3.org/2000/svg" width="4.2" height="4.025" viewBox="0 0 4.2 4.025">
  <path id="Path_144" data-name="Path 144" d="M324.414,388.093a2.059,2.059,0,0,0-.664,4.021c.105.02.144-.044.144-.1s0-.179,0-.351c-.584.125-.707-.277-.707-.277a.548.548,0,0,0-.234-.3c-.19-.128.015-.126.015-.126a.439.439,0,0,1,.321.213.454.454,0,0,0,.612.172.435.435,0,0,1,.133-.276.923.923,0,0,1-.957-1.02.79.79,0,0,1,.217-.554.718.718,0,0,1,.018-.546s.176-.055.577.212a2,2,0,0,1,1.05,0c.4-.267.575-.212.575-.212a.741.741,0,0,1,.021.546.794.794,0,0,1,.216.554.92.92,0,0,1-.959,1.018.487.487,0,0,1,.142.382c0,.276,0,.5,0,.565s.036.118.144.1a2.061,2.061,0,0,0,1.441-1.955A2.082,2.082,0,0,0,324.414,388.093Z" transform="translate(-322.314 -388.093)" fill="#181818"/>
</svg>
