<svg xmlns="http://www.w3.org/2000/svg" width="4.5" height="4.298" viewBox="0 0 4.5 4.298">
  <path id="Path_3" data-name="Path 3" d="M326.965,377.847v1.591a.071.071,0,0,1-.071.071h-.821a.071.071,0,0,1-.071-.071v-1.479c0-.39-.139-.655-.488-.655a.525.525,0,0,0-.494.352.646.646,0,0,0-.032.235v1.547a.072.072,0,0,1-.072.071h-.82a.072.072,0,0,1-.072-.071c0-.394.01-2.3,0-2.755a.071.071,0,0,1,.071-.072h.82a.071.071,0,0,1,.071.071v.34l-.007.009h.007v-.009a.956.956,0,0,1,.868-.479C326.49,376.543,326.965,376.957,326.965,377.847Zm-4.366,1.662h.821a.071.071,0,0,0,.071-.071v-2.756a.071.071,0,0,0-.071-.071H322.6a.071.071,0,0,0-.071.071v2.756A.071.071,0,0,0,322.6,379.509Z" transform="translate(-322.465 -375.211)" fill="#0070b3"/>
  <path id="Path_4" data-name="Path 4" d="M323.5,375.727a.516.516,0,1,1-.516-.516A.516.516,0,0,1,323.5,375.727Z" transform="translate(-322.465 -375.211)" fill="#0070b3"/>
</svg>
